<?xml version="1.0" encoding="UTF-8" standalone="no"?>
<!DOCTYPE svg PUBLIC "-//W3C//DTD SVG 1.1//EN"
 "http://www.w3.org/Graphics/SVG/1.1/DTD/svg11.dtd">
<!-- Generated by graphviz version 2.38.0 (20140413.2041)
 -->
<!-- Title: controllers_diagram Pages: 1 -->
<svg width="480pt" height="395pt"
 viewBox="0.00 0.00 480.16 395.00" xmlns="http://www.w3.org/2000/svg" xmlns:xlink="http://www.w3.org/1999/xlink">
<g id="graph0" class="graph" transform="scale(1 1) rotate(0) translate(172.272 223.5)">
<title>controllers_diagram</title>
<polygon fill="none" stroke="none" points="-172.272,171.5 -172.272,-223.5 307.89,-223.5 307.89,171.5 -172.272,171.5"/>
<!-- _diagram_info -->
<g id="node1" class="node"><title>_diagram_info</title>
<text text-anchor="start" x="-104.45" y="-17.1" font-family="Times,serif" font-size="13.00">Controllers diagram</text>
<text text-anchor="start" x="-104.45" y="-4.1" font-family="Times,serif" font-size="13.00">Date: Nov 23 2015 &#45; 20:07</text>
<text text-anchor="start" x="-104.45" y="8.9" font-family="Times,serif" font-size="13.00">Migration version: 20151123225822</text>
<text text-anchor="start" x="-104.45" y="21.9" font-family="Times,serif" font-size="13.00">Generated by RailRoady 1.4.1</text>
<text text-anchor="start" x="-104.45" y="34.9" font-family="Times,serif" font-size="13.00">http://railroady.prestonlee.com</text>
</g>
<!-- AboutController -->
<g id="node2" class="node"><title>AboutController</title>
<path fill="none" stroke="black" d="M-156.272,167C-156.272,167 -71.7275,167 -71.7275,167 -65.7275,167 -59.7275,161 -59.7275,155 -59.7275,155 -59.7275,89 -59.7275,89 -59.7275,83 -65.7275,77 -71.7275,77 -71.7275,77 -156.272,77 -156.272,77 -162.272,77 -168.272,83 -168.272,89 -168.272,89 -168.272,155 -168.272,155 -168.272,161 -162.272,167 -156.272,167"/>
<text text-anchor="middle" x="-114" y="92.2" font-family="Times,serif" font-size="14.00">AboutController</text>
<polyline fill="none" stroke="black" points="-168.272,99 -59.7275,99 "/>
<text text-anchor="start" x="-160.272" y="114.2" font-family="Times,serif" font-size="14.00">index</text>
<polyline fill="none" stroke="black" points="-168.272,121 -59.7275,121 "/>
<polyline fill="none" stroke="black" points="-168.272,145 -59.7275,145 "/>
<text text-anchor="start" x="-160.272" y="160.2" font-family="Times,serif" font-size="14.00">_layout</text>
</g>
<!-- ApplicationController -->
<g id="node3" class="node"><title>ApplicationController</title>
<path fill="none" stroke="black" d="M-99.8208,-113C-99.8208,-113 15.8208,-113 15.8208,-113 21.8208,-113 27.8208,-119 27.8208,-125 27.8208,-125 27.8208,-207 27.8208,-207 27.8208,-213 21.8208,-219 15.8208,-219 15.8208,-219 -99.8208,-219 -99.8208,-219 -105.821,-219 -111.821,-213 -111.821,-207 -111.821,-207 -111.821,-125 -111.821,-125 -111.821,-119 -105.821,-113 -99.8208,-113"/>
<text text-anchor="middle" x="-42" y="-203.8" font-family="Times,serif" font-size="14.00">ApplicationController</text>
<polyline fill="none" stroke="black" points="-111.821,-197 27.8208,-197 "/>
<polyline fill="none" stroke="black" points="-111.821,-173 27.8208,-173 "/>
<polyline fill="none" stroke="black" points="-111.821,-149 27.8208,-149 "/>
<text text-anchor="start" x="-103.821" y="-133.8" font-family="Times,serif" font-size="14.00">_layout</text>
<text text-anchor="start" x="-103.821" y="-119.8" font-family="Times,serif" font-size="14.00">current_user</text>
</g>
<!-- MapController -->
<g id="node4" class="node"><title>MapController</title>
<path fill="none" stroke="black" d="M67.7129,-57C67.7129,-57 144.287,-57 144.287,-57 150.287,-57 156.287,-63 156.287,-69 156.287,-69 156.287,-205 156.287,-205 156.287,-211 150.287,-217 144.287,-217 144.287,-217 67.7129,-217 67.7129,-217 61.7129,-217 55.7129,-211 55.7129,-205 55.7129,-205 55.7129,-69 55.7129,-69 55.7129,-63 61.7129,-57 67.7129,-57"/>
<text text-anchor="middle" x="106" y="-201.8" font-family="Times,serif" font-size="14.00">MapController</text>
<polyline fill="none" stroke="black" points="55.7129,-195 156.287,-195 "/>
<text text-anchor="start" x="63.7129" y="-179.8" font-family="Times,serif" font-size="14.00">addPinsToMap</text>
<text text-anchor="start" x="63.7129" y="-165.8" font-family="Times,serif" font-size="14.00">history</text>
<text text-anchor="start" x="63.7129" y="-151.8" font-family="Times,serif" font-size="14.00">index</text>
<text text-anchor="start" x="63.7129" y="-137.8" font-family="Times,serif" font-size="14.00">low10</text>
<text text-anchor="start" x="63.7129" y="-123.8" font-family="Times,serif" font-size="14.00">refresh_map</text>
<text text-anchor="start" x="63.7129" y="-109.8" font-family="Times,serif" font-size="14.00">top10</text>
<polyline fill="none" stroke="black" points="55.7129,-103 156.287,-103 "/>
<polyline fill="none" stroke="black" points="55.7129,-79 156.287,-79 "/>
<text text-anchor="start" x="63.7129" y="-63.8" font-family="Times,serif" font-size="14.00">_layout</text>
</g>
<!-- SessionsController -->
<g id="node5" class="node"><title>SessionsController</title>
<path fill="none" stroke="black" d="M194.11,-43C194.11,-43 291.89,-43 291.89,-43 297.89,-43 303.89,-49 303.89,-55 303.89,-55 303.89,-135 303.89,-135 303.89,-141 297.89,-147 291.89,-147 291.89,-147 194.11,-147 194.11,-147 188.11,-147 182.11,-141 182.11,-135 182.11,-135 182.11,-55 182.11,-55 182.11,-49 188.11,-43 194.11,-43"/>
<text text-anchor="middle" x="243" y="-131.8" font-family="Times,serif" font-size="14.00">SessionsController</text>
<polyline fill="none" stroke="black" points="182.11,-125 303.89,-125 "/>
<text text-anchor="start" x="190.11" y="-109.8" font-family="Times,serif" font-size="14.00">create</text>
<text text-anchor="start" x="190.11" y="-95.8" font-family="Times,serif" font-size="14.00">destroy</text>
<polyline fill="none" stroke="black" points="182.11,-89 303.89,-89 "/>
<polyline fill="none" stroke="black" points="182.11,-65 303.89,-65 "/>
<text text-anchor="start" x="190.11" y="-49.8" font-family="Times,serif" font-size="14.00">_layout</text>
</g>
<!-- SettingsController -->
<g id="node6" class="node"><title>SettingsController</title>
<path fill="none" stroke="black" d="M137.669,125C137.669,125 232.331,125 232.331,125 238.331,125 244.331,119 244.331,113 244.331,113 244.331,5 244.331,5 244.331,-1 238.331,-7 232.331,-7 232.331,-7 137.669,-7 137.669,-7 131.669,-7 125.669,-1 125.669,5 125.669,5 125.669,113 125.669,113 125.669,119 131.669,125 137.669,125"/>
<text text-anchor="middle" x="185" y="8.2" font-family="Times,serif" font-size="14.00">SettingsController</text>
<polyline fill="none" stroke="black" points="125.669,15 244.331,15 "/>
<text text-anchor="start" x="133.669" y="30.2" font-family="Times,serif" font-size="14.00">index</text>
<text text-anchor="start" x="133.669" y="44.2" font-family="Times,serif" font-size="14.00">set_settings</text>
<polyline fill="none" stroke="black" points="125.669,51 244.331,51 "/>
<polyline fill="none" stroke="black" points="125.669,75 244.331,75 "/>
<text text-anchor="start" x="133.669" y="90.2" font-family="Times,serif" font-size="14.00">_layout</text>
<text text-anchor="start" x="133.669" y="104.2" font-family="Times,serif" font-size="14.00">setting_params</text>
<text text-anchor="start" x="133.669" y="118.2" font-family="Times,serif" font-size="14.00">update</text>
</g>
</g>
</svg>
