<?xml version="1.0" encoding="UTF-8" standalone="no"?>
<!DOCTYPE svg PUBLIC "-//W3C//DTD SVG 1.1//EN"
 "http://www.w3.org/Graphics/SVG/1.1/DTD/svg11.dtd">
<!-- Generated by graphviz version 2.38.0 (20140413.2041)
 -->
<!-- Title: models_diagram Pages: 1 -->
<svg width="684pt" height="537pt"
 viewBox="0.00 0.00 684.06 537.00" xmlns="http://www.w3.org/2000/svg" xmlns:xlink="http://www.w3.org/1999/xlink">
<g id="graph0" class="graph" transform="scale(1 1) rotate(0) translate(4 533)">
<title>models_diagram</title>
<polygon fill="none" stroke="none" points="-4,4 -4,-533 680.055,-533 680.055,4 -4,4"/>
<!-- _diagram_info -->
<g id="node1" class="node"><title>_diagram_info</title>
<text text-anchor="start" x="8" y="-479.6" font-family="Times,serif" font-size="13.00">Models diagram</text>
<text text-anchor="start" x="8" y="-466.6" font-family="Times,serif" font-size="13.00">Date: Nov 23 2015 &#45; 20:07</text>
<text text-anchor="start" x="8" y="-453.6" font-family="Times,serif" font-size="13.00">Migration version: 20151123225822</text>
<text text-anchor="start" x="8" y="-440.6" font-family="Times,serif" font-size="13.00">Generated by RailRoady 1.4.1</text>
<text text-anchor="start" x="8" y="-427.6" font-family="Times,serif" font-size="13.00">http://railroady.prestonlee.com</text>
</g>
<!-- Map -->
<g id="node2" class="node"><title>Map</title>
<path fill="none" stroke="black" d="M237.282,-414.5C237.282,-414.5 355.617,-414.5 355.617,-414.5 361.617,-414.5 367.617,-420.5 367.617,-426.5 367.617,-426.5 367.617,-488.5 367.617,-488.5 367.617,-494.5 361.617,-500.5 355.617,-500.5 355.617,-500.5 237.282,-500.5 237.282,-500.5 231.282,-500.5 225.282,-494.5 225.282,-488.5 225.282,-488.5 225.282,-426.5 225.282,-426.5 225.282,-420.5 231.282,-414.5 237.282,-414.5"/>
<text text-anchor="middle" x="296.45" y="-485.3" font-family="Times,serif" font-size="14.00">Map</text>
<polyline fill="none" stroke="black" points="225.282,-478.5 367.617,-478.5 "/>
<text text-anchor="start" x="233.282" y="-463.3" font-family="Times,serif" font-size="14.00">id :INTEGER</text>
<text text-anchor="start" x="233.282" y="-449.3" font-family="Times,serif" font-size="14.00">authenticated :boolean</text>
<text text-anchor="start" x="233.282" y="-435.3" font-family="Times,serif" font-size="14.00">created_at :datetime</text>
<text text-anchor="start" x="233.282" y="-421.3" font-family="Times,serif" font-size="14.00">updated_at :datetime</text>
</g>
<!-- Trail -->
<g id="node5" class="node"><title>Trail</title>
<path fill="none" stroke="black" d="M241.944,-193.5C241.944,-193.5 350.955,-193.5 350.955,-193.5 356.955,-193.5 362.955,-199.5 362.955,-205.5 362.955,-205.5 362.955,-337.5 362.955,-337.5 362.955,-343.5 356.955,-349.5 350.955,-349.5 350.955,-349.5 241.944,-349.5 241.944,-349.5 235.944,-349.5 229.944,-343.5 229.944,-337.5 229.944,-337.5 229.944,-205.5 229.944,-205.5 229.944,-199.5 235.944,-193.5 241.944,-193.5"/>
<text text-anchor="middle" x="296.45" y="-334.3" font-family="Times,serif" font-size="14.00">Trail</text>
<polyline fill="none" stroke="black" points="229.944,-327.5 362.955,-327.5 "/>
<text text-anchor="start" x="237.944" y="-312.3" font-family="Times,serif" font-size="14.00">id :INTEGER</text>
<text text-anchor="start" x="237.944" y="-298.3" font-family="Times,serif" font-size="14.00">map_id :integer</text>
<text text-anchor="start" x="237.944" y="-284.3" font-family="Times,serif" font-size="14.00">name :varchar</text>
<text text-anchor="start" x="237.944" y="-270.3" font-family="Times,serif" font-size="14.00">user :boolean</text>
<text text-anchor="start" x="237.944" y="-256.3" font-family="Times,serif" font-size="14.00">lat :float</text>
<text text-anchor="start" x="237.944" y="-242.3" font-family="Times,serif" font-size="14.00">lon :float</text>
<text text-anchor="start" x="237.944" y="-228.3" font-family="Times,serif" font-size="14.00">count :integer</text>
<text text-anchor="start" x="237.944" y="-214.3" font-family="Times,serif" font-size="14.00">created_at :datetime</text>
<text text-anchor="start" x="237.944" y="-200.3" font-family="Times,serif" font-size="14.00">updated_at :datetime</text>
</g>
<!-- Map&#45;&gt;Trail -->
<g id="edge1" class="edge"><title>Map&#45;&gt;Trail</title>
<path fill="none" stroke="#cf29ed" d="M296.45,-405.954C296.45,-391.669 296.45,-375.698 296.45,-359.908"/>
<ellipse fill="none" stroke="#cf29ed" cx="296.45" cy="-410.287" rx="4" ry="4"/>
<polygon fill="#cf29ed" stroke="#cf29ed" points="296.45,-359.578 300.95,-349.578 296.45,-354.578 296.45,-349.578 296.45,-349.578 296.45,-349.578 296.45,-354.578 291.95,-349.578 296.45,-359.578 296.45,-359.578"/>
</g>
<!-- Photo -->
<g id="node3" class="node"><title>Photo</title>
<path fill="none" stroke="black" d="M209.286,-0.5C209.286,-0.5 383.614,-0.5 383.614,-0.5 389.614,-0.5 395.614,-6.5 395.614,-12.5 395.614,-12.5 395.614,-144.5 395.614,-144.5 395.614,-150.5 389.614,-156.5 383.614,-156.5 383.614,-156.5 209.286,-156.5 209.286,-156.5 203.286,-156.5 197.286,-150.5 197.286,-144.5 197.286,-144.5 197.286,-12.5 197.286,-12.5 197.286,-6.5 203.286,-0.5 209.286,-0.5"/>
<text text-anchor="middle" x="296.45" y="-141.3" font-family="Times,serif" font-size="14.00">Photo</text>
<polyline fill="none" stroke="black" points="197.286,-134.5 395.614,-134.5 "/>
<text text-anchor="start" x="205.286" y="-119.3" font-family="Times,serif" font-size="14.00">id :INTEGER</text>
<text text-anchor="start" x="205.286" y="-105.3" font-family="Times,serif" font-size="14.00">trail_id :integer</text>
<text text-anchor="start" x="205.286" y="-91.3" font-family="Times,serif" font-size="14.00">pid :varchar</text>
<text text-anchor="start" x="205.286" y="-77.3" font-family="Times,serif" font-size="14.00">trail_name :varchar</text>
<text text-anchor="start" x="205.286" y="-63.3" font-family="Times,serif" font-size="14.00">low_resolution_url :varchar</text>
<text text-anchor="start" x="205.286" y="-49.3" font-family="Times,serif" font-size="14.00">thumbnail_url :varchar</text>
<text text-anchor="start" x="205.286" y="-35.3" font-family="Times,serif" font-size="14.00">standard_resolution_url :varchar</text>
<text text-anchor="start" x="205.286" y="-21.3" font-family="Times,serif" font-size="14.00">created_at :datetime</text>
<text text-anchor="start" x="205.286" y="-7.3" font-family="Times,serif" font-size="14.00">updated_at :datetime</text>
</g>
<!-- Setting -->
<g id="node4" class="node"><title>Setting</title>
<path fill="none" stroke="black" d="M397.944,-414.5C397.944,-414.5 506.955,-414.5 506.955,-414.5 512.955,-414.5 518.955,-420.5 518.955,-426.5 518.955,-426.5 518.955,-488.5 518.955,-488.5 518.955,-494.5 512.955,-500.5 506.955,-500.5 506.955,-500.5 397.944,-500.5 397.944,-500.5 391.944,-500.5 385.944,-494.5 385.944,-488.5 385.944,-488.5 385.944,-426.5 385.944,-426.5 385.944,-420.5 391.944,-414.5 397.944,-414.5"/>
<text text-anchor="middle" x="452.45" y="-485.3" font-family="Times,serif" font-size="14.00">Setting</text>
<polyline fill="none" stroke="black" points="385.944,-478.5 518.955,-478.5 "/>
<text text-anchor="start" x="393.944" y="-463.3" font-family="Times,serif" font-size="14.00">id :INTEGER</text>
<text text-anchor="start" x="393.944" y="-449.3" font-family="Times,serif" font-size="14.00">number :integer</text>
<text text-anchor="start" x="393.944" y="-435.3" font-family="Times,serif" font-size="14.00">created_at :datetime</text>
<text text-anchor="start" x="393.944" y="-421.3" font-family="Times,serif" font-size="14.00">updated_at :datetime</text>
</g>
<!-- Trail&#45;&gt;Photo -->
<g id="edge2" class="edge"><title>Trail&#45;&gt;Photo</title>
<path fill="none" stroke="#6c8ddc" d="M296.45,-185.077C296.45,-179.003 296.45,-172.875 296.45,-166.792"/>
<ellipse fill="none" stroke="#6c8ddc" cx="296.45" cy="-189.364" rx="4" ry="4"/>
<polygon fill="#6c8ddc" stroke="#6c8ddc" points="296.45,-166.614 300.95,-156.614 296.45,-161.614 296.45,-156.614 296.45,-156.614 296.45,-156.614 296.45,-161.614 291.95,-156.614 296.45,-166.614 296.45,-166.614"/>
</g>
<!-- User -->
<g id="node6" class="node"><title>User</title>
<path fill="none" stroke="black" d="M548.844,-386.5C548.844,-386.5 664.055,-386.5 664.055,-386.5 670.055,-386.5 676.055,-392.5 676.055,-398.5 676.055,-398.5 676.055,-516.5 676.055,-516.5 676.055,-522.5 670.055,-528.5 664.055,-528.5 664.055,-528.5 548.844,-528.5 548.844,-528.5 542.844,-528.5 536.844,-522.5 536.844,-516.5 536.844,-516.5 536.844,-398.5 536.844,-398.5 536.844,-392.5 542.844,-386.5 548.844,-386.5"/>
<text text-anchor="middle" x="606.45" y="-513.3" font-family="Times,serif" font-size="14.00">User</text>
<polyline fill="none" stroke="black" points="536.844,-506.5 676.055,-506.5 "/>
<text text-anchor="start" x="544.844" y="-491.3" font-family="Times,serif" font-size="14.00">id :INTEGER</text>
<text text-anchor="start" x="544.844" y="-477.3" font-family="Times,serif" font-size="14.00">provider :varchar</text>
<text text-anchor="start" x="544.844" y="-463.3" font-family="Times,serif" font-size="14.00">uid :varchar</text>
<text text-anchor="start" x="544.844" y="-449.3" font-family="Times,serif" font-size="14.00">nickname :varchar</text>
<text text-anchor="start" x="544.844" y="-435.3" font-family="Times,serif" font-size="14.00">image_url :varchar</text>
<text text-anchor="start" x="544.844" y="-421.3" font-family="Times,serif" font-size="14.00">access_token :varchar</text>
<text text-anchor="start" x="544.844" y="-407.3" font-family="Times,serif" font-size="14.00">created_at :datetime</text>
<text text-anchor="start" x="544.844" y="-393.3" font-family="Times,serif" font-size="14.00">updated_at :datetime</text>
</g>
</g>
</svg>
